<svg xmlns="http://www.w3.org/2000/svg" xmlns:xlink="http://www.w3.org/1999/xlink" viewBox="0 0 644.76 644.76"><defs><style>.cls-1{fill:#fff;fill-opacity:0.32;opacity:0.53;}.cls-2{fill:url(#linear-gradient);}.cls-3{fill:url(#linear-gradient-2);}</style><linearGradient id="linear-gradient" x1="61.97" y1="319.09" x2="329.18" y2="319.09" gradientUnits="userSpaceOnUse"><stop offset="0" stop-color="#bf9191"/><stop offset="0" stop-color="#fff"/></linearGradient><linearGradient id="linear-gradient-2" x1="347.29" y1="325.26" x2="582.79" y2="325.26" xlink:href="#linear-gradient"/></defs><title>Favicon</title><g id="Layer_2" data-name="Layer 2"><g id="Layer_1-2" data-name="Layer 1"><circle class="cls-1" cx="322.38" cy="322.38" r="322.38"/><path class="cls-2" d="M207.31,160.17q56.82,0,89.34,44.87t32.53,112.81q0,56.41-25.12,100.46-28,49-78.64,67.93a164.74,164.74,0,0,1-58,10.3q-30.47,0-56.2-7t-37.26-14l-11.94-7q.41-3.29,9.06-61.34,18.12-121,18.12-219.45,0-32.52-5.77-46.11,44.06,11.54,55.17,36.23Q175.2,160.17,207.31,160.17ZM157.9,465.66q35.82,0,62-23.06a132.58,132.58,0,0,0,37.87-56.4,211.63,211.63,0,0,0,11.74-70.82q0-52.69-22.65-86T185.9,196q-23.88,0-42,7.41,0,25.11-10.91,126.39T122.08,459.48A99.06,99.06,0,0,0,157.9,465.66Z"/><path class="cls-3" d="M478.63,373.85Q472,429.42,472,459.48t5.76,43.65q-35-9.08-47.76-24.09t-12.76-37.88q0-22.85,6.18-65.25-44.07-157.28-76.17-205.45,16.88-10.71,35.41-10.71a64.06,64.06,0,0,1,16.67,1.86q6.79,1.84,13.38,8.44a57.55,57.55,0,0,1,11.32,16.88q4.74,10.29,10.5,30,9.89,31.31,25.12,107l2.88,16.06q37.88-58.87,61.55-111.17t27.79-81.52q30.89,17.29,30.88,46.73T478.63,373.85Z"/></g></g></svg>