<svg xmlns="http://www.w3.org/2000/svg" xmlns:xlink="http://www.w3.org/1999/xlink" viewBox="0 0 686.46 686.46"><defs><style>.cls-1{fill:#fff;fill-opacity:0.32;opacity:0.3;}.cls-2{fill:none;stroke:#fff;stroke-miterlimit:10;stroke-width:3px;opacity:0.42;}.cls-3{fill:url(#linear-gradient);}.cls-4{fill:url(#linear-gradient-2);}</style><linearGradient id="linear-gradient" x1="216.42" y1="180.53" x2="216.42" y2="532.7" gradientUnits="userSpaceOnUse"><stop offset="0" stop-color="#bf9191"/><stop offset="1" stop-color="#8b8fa0"/></linearGradient><linearGradient id="linear-gradient-2" x1="485.89" y1="180.53" x2="485.89" y2="532.7" xlink:href="#linear-gradient"/></defs><title>Logo</title><g id="Layer_2" data-name="Layer 2"><g id="Layer_1-2" data-name="Layer 1"><circle class="cls-1" cx="343.23" cy="343.23" r="322.38"/><circle class="cls-2" cx="343.23" cy="343.23" r="341.73"/><path class="cls-3" d="M228.16,181q56.8,0,89.34,44.88T350,338.7q0,56.42-25.11,100.46-28,49-78.64,67.93a164.73,164.73,0,0,1-58.05,10.29q-30.48,0-56.2-7t-37.26-14l-11.94-7q.41-3.3,9.06-61.35Q110,307,110,208.6q0-32.52-5.76-46.11Q148.29,174,159.4,198.72,196,181,228.16,181Zm-49.41,305.5q35.82,0,62-23.06A132.55,132.55,0,0,0,278.59,407a211.82,211.82,0,0,0,11.73-70.81q0-52.69-22.64-86.05t-60.93-33.35q-23.9,0-42,7.41,0,25.13-10.91,126.4T142.93,480.33A99,99,0,0,0,178.75,486.51Z"/><path class="cls-4" d="M499.47,394.69q-6.59,55.59-6.58,85.64T498.65,524q-35-9.06-47.76-24.08T438.13,462q0-22.85,6.17-65.26-44.06-157.26-76.16-205.44Q385,180.6,403.54,180.6a64.57,64.57,0,0,1,16.68,1.85q6.79,1.86,13.38,8.44a58,58,0,0,1,11.32,16.88q4.72,10.3,10.5,30.06,9.88,31.29,25.11,107l2.89,16.05Q521.3,302.06,545,249.77t27.79-81.52q30.87,17.3,30.88,46.73T499.47,394.69Z"/></g></g></svg>